PathFileType	4	(X/Y/Z)	Patient4_TMGait_0pt6_02_left_35.trc.trc
DataRate	CameraRate	NumFrames	NumMarkers	Units	OrigDataRate	OrigDataStartFrame	OrigNumFrames
83.832335329341	83.832335329341	4	33	mm	83.832335329341	18	       141
Frame#	Time	Sacral			L.Shoulder			Chest			R.Shoulder			Neck			R.ASIS			L.ASIS			R.Thigh.Superior			R.Thigh.Lateral			R.Thigh.Inferior			R.Patella			L.Thigh.Superior			L.Thigh.Lateral			L.Thigh.Inferior			L.Patella			L.Shank.Superior			L.Shank.Lateral			L.Shank.Inferior			R.Shank.Superior			R.Shank.Lateral			R.Shank.Inferior			R.Heel			R.Midfoot.Superior			R.Midfoot.Lateral			R.Toe			L.Heel			L.Midfoot.Lateral			L.Midfoot.Superior			L.Toe			L.Elbow			L.Wrist			R.Elbow			R.Wrist			
		X1	Y1	Z1	X2	Y2	Z2	X3	Y3	Z3	X4	Y4	Z4	X5	Y5	Z5	X6	Y6	Z6	X7	Y7	Z7	X8	Y8	Z8	X9	Y9	Z9	X10	Y10	Z10	X11	Y11	Z11	X12	Y12	Z12	X13	Y13	Z13	X14	Y14	Z14	X15	Y15	Z15	X16	Y16	Z16	X17	Y17	Z17	X18	Y18	Z18	X19	Y19	Z19	X20	Y20	Z20	X21	Y21	Z21	X22	Y22	Z22	X23	Y23	Z23	X24	Y24	Z24	X25	Y25	Z25	X26	Y26	Z26	X27	Y27	Z27	X28	Y28	Z28	X29	Y29	Z29	X30	Y30	Z30	X31	Y31	Z31	X32	Y32	Z32	X33	Y33	Z33	

18	42.922785714286	819.001926691502	1015.586079653035	517.996465195356	995.577345097175	1430.526729574872	314.634849381071	1120.479714696744	1348.637905257440	452.151258051989	1078.626403614827	1431.600402648481	635.409887723524	1024.999195395589	1488.487607388463	463.554713791181	1052.212472207328	934.247586146199	603.467443579215	1005.980059699115	956.180715079062	331.769812348132	1048.328527570519	723.521712272067	574.242299589423	950.218017367262	629.617578035361	641.174446527271	1005.226749853519	565.208878458984	555.636957207576	987.413971878532	481.222411604218	559.611310825781	1081.191251302976	780.006362453906	362.851769177989	1037.460519814445	652.100315726168	282.131839588340	1141.182277214993	593.497020352418	344.879277717981	1171.395355433857	530.314528895249	338.231123629342	1156.749841512405	458.745432455692	327.441781286404	1095.699811764914	326.192587180433	276.375694038928	1188.512906371620	230.734879506371	328.689352685422	950.920039973876	397.525241302928	567.639541831939	873.255345719022	301.091350860411	633.419029053215	898.190894861767	203.598440174314	565.022872777000	747.783064229287	45.415305576195	539.814270975239	921.066042628520	96.403011538973	569.022247948799	833.666904548414	37.386011028836	610.853390425151	1041.709892792472	40.008794627157	591.916979308549	1115.514483984151	45.538770304495	368.366360487718	1187.429154937694	54.854234179040	286.974213026378	1253.773915186234	136.740917560588	306.067877240733	1388.250142505963	115.886630240308	277.729930100425	829.070225290928	1111.791287257519	231.528477912331	778.854439443977	856.665185625328	241.710953065236	1232.722594545467	1134.474493100109	739.710213824408	1432.442587935923	1229.294128051486	621.830752576760	
19	42.934714285714	820.172650021061	1014.165912119234	515.697706358557	995.442178114528	1429.938828629854	313.320884031079	1120.451800052906	1348.044493816002	450.718191370065	1078.108403040410	1430.385387543387	634.097082992691	1024.605879487758	1487.538141394839	462.418932012444	1053.141796496518	933.343239158355	601.641036504312	1007.344475915206	954.689035010367	329.829519713709	1047.648385088098	722.307766022016	572.807034232735	948.434119811708	629.130276520001	639.971954045876	1002.814735100073	564.106930190366	554.736664779868	984.043998399474	480.153793465345	558.753067718080	1081.729638690417	777.355572745569	360.895765860914	1035.877252127393	648.894141360150	281.785597793326	1139.675235996993	590.169772564299	343.811710076257	1169.135052890744	527.037639268793	337.846355818864	1154.781817243285	455.601987516090	327.520928160083	1093.634601709566	322.447814540586	278.627993414331	1187.553266350474	227.874763788676	330.547502588048	946.803025105546	396.722035736273	566.937096729647	868.281057086841	301.155108098105	633.044973289804	892.176175247122	203.297333768747	564.770225561336	740.634736487548	45.749771723186	539.910017987061	913.971951122467	96.447411470651	569.088161269135	826.504351352543	37.501785309415	610.901823907200	1034.520238163658	39.843303828421	591.944354907669	1115.484978869402	43.761867749245	372.836536599048	1186.368773835119	52.006562387717	290.535338842630	1253.409145649762	133.317869252939	308.262423478919	1387.237778107953	111.278922310728	278.564383971429	825.680624705879	1113.324782978515	231.414461930452	771.316924398662	859.066324094422	242.608289952683	1234.914580531845	1134.627771857967	736.447358438065	1430.643091354255	1236.020348603026	617.983696650882	
20	42.946642857143	821.560191444138	1012.587654183147	513.209552922532	995.262298700920	1429.240633410329	311.804998453750	1120.387842814483	1347.484715602559	449.158722700448	1077.407518030093	1429.162296827163	632.665390143947	1024.088514867114	1486.538546682619	461.090264928635	1054.238037262310	932.365685318541	599.713991478851	1008.972233093855	953.126940041337	327.793380792443	1047.217882391517	721.023250025747	571.326280179380	946.849980135954	628.610997447759	638.684853276692	1000.645771993186	562.946727142434	553.785604212433	980.882659949388	479.012737491027	557.814445965025	1082.707353321125	774.769615699350	358.820035914770	1034.637552516332	645.650763112168	281.643942718893	1138.659861494916	586.969412455759	342.815509993266	1167.172534483623	523.549721546731	337.697694294428	1152.812211297916	452.094965108896	327.854485586430	1090.839915590911	318.752392086886	281.016797279885	1185.136841900868	224.503317187638	332.667753571931	942.871126451188	395.863039659150	566.172521731647	863.436180452185	301.229290879127	632.624687052372	886.233672477341	202.988084702595	564.501230750830	733.491688207826	46.136237223510	540.026509915961	906.895711081463	96.508371000726	569.162202817132	819.353257349121	37.639039490908	610.960699376535	1027.339270547088	39.666798967944	591.981489345200	1112.603854566902	42.250197339061	377.297423140048	1182.555971546827	49.049908467040	294.129401275742	1250.982535046892	129.011666687233	310.813329475065	1383.962024834606	104.632166748087	279.712998474973	823.078162700689	1114.312351304703	231.035334327476	764.932671327498	860.907484222525	243.213182358503	1236.434061424471	1134.464127975729	733.444758787556	1428.545771379655	1241.437126453810	614.469228895318	
21	42.958571428571	823.119505838925	1010.904766064689	510.544644892131	995.068691172000	1428.449129657240	310.077231913144	1120.312690361203	1346.965365668709	447.466864369440	1076.564802729054	1427.958560309824	631.105540790263	1023.489542935165	1485.515949283329	459.552413408233	1055.471936152076	931.326656638225	597.699685472646	1010.846913223223	951.538957516667	325.671832587069	1047.016771873353	719.680655944883	569.830189809763	945.448982906296	628.065248169368	637.310778121044	998.729496221337	561.739145203667	552.783439319682	977.958178765485	477.791326444143	556.789689046625	1084.089260180193	772.273006097686	356.672769448553	1033.747506900729	642.471490741154	281.638209631972	1138.088643045203	583.940202738011	341.916740025580	1165.462634377618	519.960689112524	337.820853850074	1150.899247390766	448.371359173157	328.408373371648	1087.607782486207	315.183461696109	283.322471837714	1181.611771341555	220.778080689308	334.927793517052	939.138888168084	394.954634557864	565.340760079879	858.723089034549	301.323389616331	632.147811607756	880.367988089982	202.679361182743	564.213342540032	726.350976423714	46.591569479743	540.165214600327	899.845253066539	96.584991360139	569.241989767577	812.213325282630	37.801417522247	611.026506538566	1020.173108430532	39.484970099475	592.031116312667	1107.394557265463	40.974521107776	381.422308056597	1176.621831722142	46.120376453030	297.530195200444	1246.955562005914	124.090570906426	313.633901971862	1378.983020904597	96.471990071594	281.270888127766	821.244042627356	1114.756406480879	230.351403270843	759.752903782859	862.160655357729	243.479657589219	1237.263438754924	1133.949344690574	730.731702627423	1426.214371524691	1245.543149751159	611.294869219584	
